<?xml version="1.0" encoding="UTF-8"?>
<svg xmlns="http://www.w3.org/2000/svg" xmlns:xlink="http://www.w3.org/1999/xlink" width="50pt" height="50pt" viewBox="0 0 50 50" version="1.1">
<g id="surface1">
<path style=" stroke:none;fill-rule:nonzero;fill:rgb(0%,0%,0%);fill-opacity:1;" d="M 21.359375 43.507812 C 20.710938 43.574219 20.164062 43.640625 19.617188 43.703125 C 16.777344 43.984375 14.296875 43.210938 12.421875 40.996094 C 11.835938 40.304688 11.503906 39.40625 11.003906 38.632812 C 10.234375 37.421875 9.441406 36.21875 8.59375 35.058594 C 8.300781 34.65625 7.792969 34.421875 7.402344 34.082031 C 7.273438 33.976562 7.234375 33.769531 7.148438 33.601562 C 7.324219 33.535156 7.488281 33.417969 7.664062 33.398438 C 9.910156 33.195312 11.492188 34.226562 12.597656 36.09375 C 13.972656 38.417969 15.964844 39.6875 18.671875 39.6875 C 19.453125 39.6875 20.234375 39.425781 21.007812 39.25 C 21.152344 39.210938 21.328125 38.984375 21.347656 38.820312 C 21.484375 37.804688 21.609375 36.789062 22.078125 35.859375 C 22.257812 35.519531 22.460938 35.195312 22.664062 34.84375 C 21.875 34.6875 21.113281 34.570312 20.359375 34.386719 C 16.894531 33.507812 14.03125 31.769531 12.375 28.46875 C 11.726562 27.179688 11.367188 25.792969 11.320312 24.347656 C 11.242188 22.121094 11.269531 19.882812 11.71875 17.6875 C 12.039062 16.144531 12.628906 14.707031 13.800781 13.59375 C 14.054688 13.351562 14.101562 13.136719 13.964844 12.765625 C 13.3125 10.9375 13.242188 9.082031 13.800781 7.21875 C 13.914062 6.816406 14.023438 6.417969 14.140625 5.996094 C 16.816406 6.503906 18.40625 8.3125 19.902344 10.3125 C 21.445312 9.171875 23.273438 9.074219 25.046875 8.957031 C 27.160156 8.820312 29.277344 8.847656 31.375 9.191406 C 32.46875 9.367188 33.144531 9.589844 34.210938 10.226562 C 35.125 9.277344 35.984375 8.320312 36.933594 7.453125 C 37.6875 6.757812 38.625 6.320312 39.640625 6.085938 C 39.921875 6.015625 40.066406 6.046875 40.1875 6.359375 C 40.976562 8.515625 41.09375 10.664062 40.226562 12.824219 C 40.109375 13.117188 40.117188 13.320312 40.359375 13.554688 C 41.765625 14.894531 42.410156 16.621094 42.625 18.488281 C 42.820312 20.214844 42.929688 21.953125 42.929688 23.691406 C 42.929688 26.164062 42.195312 28.429688 40.644531 30.371094 C 39.550781 31.75 38.132812 32.734375 36.53125 33.476562 C 34.980469 34.191406 33.359375 34.601562 31.679688 34.816406 C 31.640625 34.824219 31.601562 34.855469 31.53125 34.882812 C 32.6875 36.535156 32.871094 38.390625 32.851562 40.3125 C 32.820312 43.117188 32.832031 45.910156 32.851562 48.710938 C 32.851562 49.152344 32.726562 49.257812 32.296875 49.257812 C 28.828125 49.238281 25.359375 49.238281 21.894531 49.257812 C 21.464844 49.257812 21.328125 49.121094 21.328125 48.703125 C 21.347656 47.1875 21.335938 45.675781 21.335938 44.160156 C 21.359375 43.9375 21.359375 43.742188 21.359375 43.507812 Z M 21.359375 43.507812 "/>
</g>
</svg>
