<?xml version="1.0" encoding="UTF-8"?>
<svg xmlns="http://www.w3.org/2000/svg" xmlns:xlink="http://www.w3.org/1999/xlink" width="50pt" height="50pt" viewBox="0 0 50 50" version="1.1">
<defs>
<radialGradient id="radial0" gradientUnits="userSpaceOnUse" cx="19.1111" cy="128.4444" fx="19.1111" fy="128.4444" r="163.5519" gradientTransform="matrix(0.390625,0,0,0.390625,0,0)">
<stop offset="0" style="stop-color:rgb(100%,69.411765%,25.098039%);stop-opacity:1;"/>
<stop offset="0.2559" style="stop-color:rgb(100%,32.941176%,27.058824%);stop-opacity:1;"/>
<stop offset="0.599" style="stop-color:rgb(98.823529%,16.862745%,50.980392%);stop-opacity:1;"/>
<stop offset="1" style="stop-color:rgb(55.686275%,25.098039%,71.764706%);stop-opacity:1;"/>
</radialGradient>
</defs>
<g id="surface1">
<path style=" stroke:none;fill-rule:evenodd;fill:url(#radial0);" d="M 41.34375 11.65625 C 41.34375 13.3125 40 14.65625 38.34375 14.65625 C 36.6875 14.65625 35.34375 13.3125 35.34375 11.65625 C 35.34375 10 36.6875 8.65625 38.34375 8.65625 C 40 8.65625 41.34375 10 41.34375 11.65625 Z M 25 33.332031 C 20.398438 33.332031 16.667969 29.601562 16.667969 25 C 16.667969 20.398438 20.398438 16.667969 25 16.667969 C 29.601562 16.667969 33.332031 20.398438 33.332031 25 C 33.332031 29.601562 29.601562 33.332031 25 33.332031 Z M 25 12.164062 C 17.910156 12.164062 12.164062 17.910156 12.164062 25 C 12.164062 32.089844 17.910156 37.835938 25 37.835938 C 32.089844 37.835938 37.835938 32.089844 37.835938 25 C 37.835938 17.910156 32.089844 12.164062 25 12.164062 Z M 25 4.503906 C 31.675781 4.503906 32.464844 4.53125 35.101562 4.648438 C 37.539062 4.761719 38.863281 5.167969 39.742188 5.511719 C 40.910156 5.964844 41.742188 6.507812 42.617188 7.382812 C 43.492188 8.257812 44.035156 9.089844 44.488281 10.257812 C 44.832031 11.136719 45.238281 12.460938 45.351562 14.898438 C 45.46875 17.535156 45.496094 18.324219 45.496094 25 C 45.496094 31.675781 45.46875 32.46875 45.351562 35.101562 C 45.238281 37.539062 44.832031 38.863281 44.488281 39.746094 C 44.035156 40.910156 43.492188 41.746094 42.617188 42.621094 C 41.742188 43.496094 40.910156 44.035156 39.742188 44.488281 C 38.863281 44.832031 37.539062 45.238281 35.101562 45.351562 C 32.464844 45.472656 31.675781 45.496094 25 45.496094 C 18.324219 45.496094 17.535156 45.472656 14.898438 45.351562 C 12.460938 45.238281 11.136719 44.832031 10.253906 44.488281 C 9.089844 44.035156 8.257812 43.496094 7.382812 42.621094 C 6.507812 41.746094 5.964844 40.914062 5.511719 39.746094 C 5.167969 38.863281 4.761719 37.539062 4.648438 35.101562 C 4.53125 32.464844 4.503906 31.675781 4.503906 25 C 4.503906 18.324219 4.53125 17.535156 4.648438 14.898438 C 4.761719 12.460938 5.167969 11.136719 5.511719 10.257812 C 5.964844 9.089844 6.507812 8.257812 7.382812 7.382812 C 8.253906 6.507812 9.089844 5.964844 10.253906 5.511719 C 11.136719 5.167969 12.460938 4.761719 14.898438 4.648438 C 17.535156 4.53125 18.324219 4.503906 25 4.503906 Z M 25 0 C 18.210938 0 17.359375 0.0273438 14.691406 0.152344 C 12.03125 0.273438 10.214844 0.695312 8.625 1.3125 C 6.980469 1.953125 5.585938 2.804688 4.195312 4.195312 C 2.804688 5.585938 1.953125 6.980469 1.3125 8.625 C 0.695312 10.214844 0.273438 12.03125 0.152344 14.691406 C 0.0273438 17.359375 0 18.210938 0 25 C 0 31.789062 0.0273438 32.640625 0.152344 35.308594 C 0.273438 37.96875 0.695312 39.785156 1.3125 41.375 C 1.953125 43.019531 2.804688 44.414062 4.195312 45.804688 C 5.585938 47.195312 6.980469 48.046875 8.625 48.6875 C 10.214844 49.304688 12.03125 49.726562 14.691406 49.851562 C 17.359375 49.972656 18.210938 50 25 50 C 31.789062 50 32.640625 49.972656 35.308594 49.851562 C 37.96875 49.726562 39.785156 49.304688 41.375 48.6875 C 43.019531 48.046875 44.414062 47.195312 45.804688 45.804688 C 47.195312 44.414062 48.046875 43.019531 48.6875 41.375 C 49.304688 39.785156 49.726562 37.96875 49.851562 35.308594 C 49.972656 32.640625 50 31.789062 50 25 C 50 18.210938 49.972656 17.359375 49.851562 14.691406 C 49.726562 12.03125 49.304688 10.214844 48.6875 8.625 C 48.046875 6.980469 47.195312 5.585938 45.804688 4.195312 C 44.414062 2.804688 43.019531 1.953125 41.375 1.3125 C 39.785156 0.695312 37.96875 0.273438 35.308594 0.148438 C 32.640625 0.0273438 31.789062 0 25 0 Z M 25 0 "/>
</g>
</svg>
