<?xml version="1.0" encoding="UTF-8"?>
<svg xmlns="http://www.w3.org/2000/svg" xmlns:xlink="http://www.w3.org/1999/xlink" width="50pt" height="50pt" viewBox="0 0 50 50" version="1.1">
<g id="surface1">
<path style=" stroke:none;fill-rule:nonzero;fill:rgb(0%,37.254902%,97.647059%);fill-opacity:1;" d="M 0 25 C 0 11.191406 11.191406 0 25 0 C 38.808594 0 50 11.191406 50 25 C 50 38.808594 38.808594 50 25 50 C 11.191406 50 0 38.808594 0 25 Z M 0 25 "/>
<path style=" stroke:none;fill-rule:evenodd;fill:rgb(100%,61.960784%,0%);fill-opacity:1;" d="M 10.417969 24.957031 C 10.417969 16.941406 16.957031 10.417969 25 10.417969 C 33.042969 10.417969 39.582031 16.941406 39.582031 24.957031 C 39.582031 26.09375 39.488281 27.015625 39.277344 27.9375 L 39.273438 27.953125 C 39.273438 27.957031 39.167969 28.378906 39.109375 28.566406 C 38.75 29.714844 38.09375 30.671875 37.222656 31.335938 C 36.375 31.976562 35.324219 32.332031 34.261719 32.332031 C 34.128906 32.332031 34 32.324219 33.871094 32.316406 C 32.363281 32.195312 31.039062 31.402344 30.226562 30.144531 C 28.828125 31.542969 26.976562 32.3125 25 32.3125 C 20.933594 32.3125 17.625 29.015625 17.625 24.957031 C 17.625 20.902344 20.933594 17.601562 25 17.601562 C 29.066406 17.601562 32.375 20.902344 32.375 24.957031 L 32.375 27.328125 C 32.382812 28.714844 33.3125 29.277344 34.109375 29.34375 C 34.898438 29.402344 35.953125 28.945312 36.320312 27.445312 C 36.5 26.621094 36.59375 25.785156 36.59375 24.957031 C 36.59375 18.585938 31.390625 13.398438 25 13.398438 C 18.605469 13.398438 13.40625 18.585938 13.40625 24.957031 C 13.40625 31.332031 18.605469 36.519531 25 36.519531 C 27.226562 36.519531 29.390625 35.886719 31.257812 34.6875 L 31.292969 34.664062 L 33.257812 36.941406 L 33.214844 36.972656 C 30.785156 38.625 27.945312 39.5 25 39.5 C 16.957031 39.5 10.417969 32.976562 10.417969 24.957031 Z M 25 29.332031 C 27.417969 29.332031 29.386719 27.371094 29.386719 24.957031 C 29.386719 22.546875 27.417969 20.585938 25 20.585938 C 22.582031 20.585938 20.613281 22.546875 20.613281 24.957031 C 20.613281 27.371094 22.582031 29.332031 25 29.332031 Z M 25 29.332031 "/>
</g>
</svg>
