<?xml version="1.0" encoding="UTF-8"?>
<svg xmlns="http://www.w3.org/2000/svg" xmlns:xlink="http://www.w3.org/1999/xlink" width="50pt" height="50pt" viewBox="0 0 50 50" version="1.1">
<g id="surface1">
<path style=" stroke:none;fill-rule:nonzero;fill:rgb(29.803922%,45.882353%,63.921569%);fill-opacity:1;" d="M 25 1.921875 C 12.253906 1.921875 1.921875 12.253906 1.921875 25 C 1.921875 37.746094 12.253906 48.078125 25 48.078125 C 37.746094 48.078125 48.078125 37.746094 48.078125 25 C 48.078125 12.253906 37.746094 1.921875 25 1.921875 Z M 37.402344 33.757812 C 36.417969 34.375 32.417969 34.558594 31.449219 33.855469 C 30.914062 33.46875 30.429688 32.984375 29.96875 32.523438 C 29.644531 32.203125 29.277344 32.046875 29 31.699219 C 28.773438 31.414062 28.621094 31.074219 28.382812 30.792969 C 27.976562 30.320312 27.359375 29.917969 26.867188 30.496094 C 26.132812 31.367188 26.984375 33.074219 26 33.722656 C 25.671875 33.941406 25.339844 34.003906 24.925781 33.972656 L 24.011719 34.015625 C 23.476562 34.023438 22.625 34.03125 22.015625 33.921875 C 21.335938 33.796875 20.773438 33.425781 20.15625 33.152344 C 18.988281 32.632812 17.871094 31.925781 17.027344 30.949219 C 14.71875 28.285156 11.621094 24.617188 10.417969 21.269531 C 10.171875 20.578125 9.515625 19.214844 10.136719 18.625 C 10.980469 18.011719 15.117188 17.839844 15.761719 18.789062 C 16.023438 19.171875 16.191406 19.734375 16.375 20.171875 C 16.605469 20.714844 16.730469 21.226562 17.09375 21.710938 C 17.410156 22.136719 17.648438 22.566406 17.894531 23.035156 C 18.171875 23.558594 18.433594 24.0625 18.769531 24.546875 C 19 24.875 19.605469 25.53125 19.988281 25.578125 C 20.921875 25.699219 20.863281 23.429688 20.792969 22.875 C 20.726562 22.339844 20.710938 21.773438 20.726562 21.234375 C 20.742188 20.773438 20.785156 20.121094 20.511719 19.742188 C 20.066406 19.128906 19.070312 19.589844 18.996094 18.761719 C 19.160156 18.527344 19.125 18.320312 20.21875 17.957031 C 21.082031 17.675781 21.640625 17.683594 22.210938 17.730469 C 23.367188 17.824219 24.597656 17.507812 25.71875 17.882812 C 26.789062 18.246094 26.625 19.765625 26.585938 20.675781 C 26.539062 21.921875 26.589844 23.132812 26.585938 24.398438 C 26.585938 24.972656 26.5625 25.53125 27.265625 25.484375 C 27.921875 25.441406 27.988281 24.886719 28.300781 24.429688 C 28.738281 23.796875 29.136719 23.148438 29.582031 22.515625 C 30.179688 21.660156 30.363281 20.699219 30.925781 19.820312 C 31.125 19.507812 31.300781 18.839844 31.609375 18.589844 C 31.84375 18.402344 32.292969 18.5 32.578125 18.5 L 33.253906 18.5 C 33.769531 18.5 34.296875 18.496094 34.832031 18.515625 C 35.597656 18.542969 36.453125 18.367188 37.214844 18.472656 C 40.492188 18.933594 33.09375 25.941406 33.480469 27.191406 C 33.746094 28.058594 35.433594 29.023438 36.042969 29.730469 C 36.851562 30.671875 39.339844 32.546875 37.402344 33.757812 Z M 37.402344 33.757812 "/>
</g>
</svg>
